<svg preserveAspectRatio="none" width="100%" height="100%" overflow="visible" style="display: block;" viewBox="0 0 165 31.1842" fill="none" xmlns="http://www.w3.org/2000/svg">
<g id="flutterwave 1" clip-path="url(#clip0_0_29)">
<path id="Vector" d="M21.1466 13.2519C25.1504 9.9812 33.3271 -1.80451 20.5263 0.281956C14.9436 1.12782 6.76693 6.54135 5.13159 12.8008C4.28573 11.109 3.32708 9.53008 2.31204 7.95113C0.733095 5.80827 -1.01503 7.5 0.676704 9.64286C5.69157 15.7145 8.58293 23.2597 8.90979 31.1278C9.30452 27.3496 8.68422 22.7256 7.16167 18.2143C7.89475 18.4398 8.74061 18.5526 9.4737 18.5526C12.0677 22.8383 16.0714 26.5038 20.5263 28.1955C24.6429 29.8308 30.1128 28.8722 27.8572 22.2744C26.6729 18.6654 23.9098 15.5075 21.1466 13.2519ZM21.7105 1.80451C28.8158 1.01504 21.203 9.86842 18.7218 11.5038C16.4098 9.9812 13.4775 8.62782 10.6579 9.02256C12.688 6.37218 17.6504 2.31203 21.7105 1.80451ZM10.6015 10.9399C12.5188 10.7707 14.6053 11.8421 16.2406 12.9699C14.6617 13.7594 12.9699 14.2105 11.2218 14.3797C8.62783 14.3797 8.06392 11.1654 10.6015 10.9399ZM20.4135 24.6992C17.0865 23.7406 13.9286 21.0338 11.6729 18.3271C13.5338 17.9323 15.3947 17.1992 17.0865 16.1842C17.7068 15.9023 18.3271 15.4511 18.891 15.0564C20.8647 16.8609 22.9511 19.2857 23.7406 22.0489C24.5301 25.0376 22.3872 25.2632 20.4135 24.6992Z" fill="var(--fill-0, #F5A623)"/>
<g id="Group">
<path id="Vector_2" d="M48.3835 5.80828H38.6842C38.3459 5.80828 38.0639 6.09023 38.0639 6.42858H38.0075V21.6541C38.0075 21.9925 38.2895 22.2744 38.6278 22.2744C38.9098 22.2744 39.1917 21.9925 39.2481 21.6541V14.7744H47.4812C47.8195 14.7744 47.9887 14.4925 47.9887 14.2105C47.9887 13.8722 47.7632 13.703 47.4812 13.703H39.1917V6.99249H48.3835C48.7218 6.99249 48.891 6.71053 48.891 6.42858C48.891 6.2594 48.7218 6.03384 48.3835 5.80828ZM52.8383 5.0188H52.782C52.5 5.0188 52.3308 5.24437 52.3308 5.52632V21.5978C52.3308 21.9361 52.5564 22.1617 52.8383 22.1617C53.1767 22.1617 53.3459 21.8797 53.3459 21.5978V5.6391C53.3459 5.24437 53.1767 5.0188 52.8383 5.0188ZM66.8797 10.7707C66.8797 10.4323 66.6541 10.2068 66.3722 10.2068C66.0338 10.2068 65.8647 10.4887 65.8647 10.7707V17.4812C65.8647 19.7368 64.1165 21.5414 61.9737 21.485C59.718 21.485 58.421 19.906 58.421 17.4248V10.7707C58.421 10.4323 58.1955 10.2068 57.9135 10.2068C57.688 10.2068 57.406 10.4887 57.406 10.7707V17.594C57.406 20.4135 59.0977 22.5 61.8609 22.5C63.5526 22.5564 65.1316 21.5978 65.921 20.0188V21.7669C65.921 22.1053 66.203 22.2744 66.4286 22.2744C66.7669 22.2744 66.9361 21.9925 66.9361 21.7669H66.8797V10.7707ZM76.1842 11.3346C76.4098 11.3346 76.6917 11.109 76.6917 10.8271C76.6917 10.6015 76.4098 10.3196 76.1842 10.3196H72.6316V6.99249C72.6316 6.71053 72.3496 6.42858 72.1241 6.42858H72.0677C71.7857 6.42858 71.6165 6.71053 71.6165 6.99249V10.3196H70.3759C70.094 10.3196 69.8684 10.4887 69.8684 10.7707C69.8684 11.0526 70.094 11.3346 70.3759 11.3346H71.6165V19.1165C71.6165 21.3158 73.0263 22.3872 74.6616 22.3872C75.2256 22.3872 75.7895 22.2744 76.297 22.1053C76.4662 21.9925 76.6353 21.8233 76.6353 21.5978C76.6353 21.3158 76.4098 21.1466 76.1842 21.1466C75.7895 21.2594 75.3383 21.3158 74.8872 21.3158C73.5338 21.3158 72.6316 20.6955 72.6316 19.0038V11.3346H76.1842ZM84.9248 11.3346C85.2068 11.3346 85.4323 11.109 85.4323 10.8271C85.4323 10.6015 85.2068 10.3196 84.9248 10.3196H81.3722V6.99249C81.3722 6.71053 81.1466 6.42858 80.8647 6.42858H80.8083C80.5263 6.42858 80.3571 6.71053 80.3571 6.99249V10.3196H79.1165C78.891 10.3196 78.609 10.4887 78.609 10.7707C78.609 11.0526 78.891 11.3346 79.1165 11.3346H80.3571V19.1165C80.3571 21.3158 81.7669 22.3872 83.4586 22.3872C83.9662 22.3872 84.5301 22.2744 85.0376 22.1053C85.2632 21.9925 85.3759 21.8233 85.3759 21.5978C85.3759 21.3158 85.2068 21.1466 84.9248 21.1466C84.5301 21.2594 84.0789 21.3158 83.6278 21.3158C82.2744 21.3158 81.3722 20.6955 81.3722 19.0038V11.3346H84.9248ZM92.6504 9.98121C89.6616 9.98121 87.406 12.688 87.406 16.2406V16.297C87.406 20.0752 89.8872 22.5564 92.8759 22.5564C94.4549 22.6128 96.0902 21.9361 97.1616 20.6391C97.3308 20.5263 97.3872 20.3571 97.3872 20.2444C97.3872 19.9624 97.1053 19.6805 96.8797 19.6805L96.5413 19.7932C96.094 20.3148 95.5409 20.7354 94.9187 21.027C94.2965 21.3187 93.6194 21.4748 92.9323 21.485C90.7331 21.485 88.7594 19.7368 88.5338 16.8045H97.3308C97.5564 16.8045 97.8383 16.5226 97.8383 16.2406C97.8383 12.688 95.8083 9.98121 92.6504 9.98121ZM88.4774 15.6767C88.6466 13.0827 90.3947 11.0526 92.594 11.0526C95.1316 11.0526 96.485 13.2519 96.5977 15.6767H88.4774ZM106.466 10.1504C104.436 10.3196 102.744 11.7293 102.011 13.7594V10.8271C102.011 10.6015 101.729 10.3196 101.504 10.3196C101.165 10.3196 100.996 10.4887 100.94 10.8271V21.8797C100.94 22.1617 101.165 22.4436 101.447 22.4436C101.729 22.4436 101.955 22.2181 102.011 21.8797V17.4812C102.011 13.5902 104.098 11.7293 106.466 11.4474H106.523C106.861 11.4474 107.03 11.109 107.03 10.8271C107.03 10.4323 106.805 10.1504 106.466 10.1504Z" fill="var(--fill-0, black)"/>
<path id="Vector_3" d="M125.47 9.53006C124.737 9.53006 124.06 10.094 123.891 10.8834L121.974 17.312L120.113 10.8834C119.944 10.094 119.21 9.47367 118.365 9.47367H118.195C117.35 9.47367 116.617 9.98119 116.447 10.8834L114.586 17.1992L112.782 10.8271C112.556 10.094 111.936 9.47367 111.147 9.47367H111.09C110.244 9.47367 109.624 10.2068 109.624 11.109L109.737 11.9549L112.613 20.8083C112.838 21.7105 113.571 22.3308 114.474 22.3872H114.586C115.432 22.3872 116.109 21.7669 116.391 20.8646L118.252 14.5489L120.113 20.8646C120.338 21.7669 121.071 22.3872 121.917 22.3872H122.086C122.989 22.3872 123.722 21.7669 123.947 20.8083L126.823 11.8421L126.992 11.1654V11.109C126.992 10.2068 126.316 9.53006 125.47 9.53006ZM133.759 9.53006C132.462 9.47367 131.222 9.75563 129.981 10.1504C129.474 10.3759 129.192 10.8834 129.192 11.5037C129.192 12.3496 129.812 12.9699 130.601 12.9135C130.714 12.9135 130.883 12.9135 131.053 12.8007C131.786 12.5752 132.575 12.4624 133.365 12.4624C135.056 12.4624 135.902 13.2519 135.902 14.7744V14.9436C135 14.6053 133.985 14.4925 133.026 14.4925C130.263 14.4925 128.346 15.7895 128.346 18.5526C128.346 20.9774 130.207 22.3872 132.35 22.3872C133.703 22.4436 135 21.8233 135.902 20.8083C135.959 21.7105 136.635 22.3308 137.481 22.3308C138.383 22.3308 139.117 21.5413 139.117 20.5827V14.9436C139.173 13.5338 138.722 12.0677 137.82 10.9962C136.861 10.094 135.564 9.53006 133.759 9.53006ZM135.959 17.7068C135.959 19.0601 134.831 19.906 133.308 19.8496C132.237 19.8496 131.504 19.2857 131.504 18.3271V18.2707C131.504 17.1992 132.406 16.5225 133.816 16.5225C134.492 16.5225 135.282 16.7481 135.959 17.0301V17.7068ZM150.564 9.47367C149.887 9.47367 149.21 9.9248 149.041 10.7143L146.447 17.9887L143.966 10.7707C143.741 9.98119 143.12 9.47367 142.331 9.47367C141.485 9.47367 140.808 10.1504 140.695 11.109C140.695 11.391 140.808 11.6729 140.921 11.9549L144.53 20.8083C144.756 21.7105 145.489 22.3308 146.391 22.3872H146.617C147.406 22.3308 148.195 21.7669 148.534 20.8646L152.03 12.0113L152.199 11.1654V11.109C152.199 10.2068 151.523 9.47367 150.564 9.47367ZM159.304 9.41728C155.865 9.41728 153.496 12.3496 153.496 15.9022V16.4662C153.609 19.906 156.429 22.5564 159.643 22.3872C161.109 22.3872 162.519 21.8797 163.703 20.8646C164.041 20.5827 164.154 20.2443 164.154 19.8496V19.7932C164.154 19.0037 163.59 18.3834 162.857 18.3834C162.575 18.3834 162.293 18.4398 162.068 18.6654C161.41 19.2314 160.566 19.5328 159.699 19.5113C158.289 19.5677 157.049 18.5526 156.88 17.0301H163.477C164.323 16.9737 165 16.1842 164.944 15.2819V15C164.944 11.9549 162.406 9.3045 159.304 9.41728ZM156.767 14.9436C157.049 13.3083 157.951 12.2932 159.304 12.2932C160.658 12.2932 161.56 13.3646 161.729 14.9436H156.767Z" fill="var(--fill-0, black)" stroke="var(--stroke-0, black)" stroke-width="0.056391"/>
</g>
</g>
<defs>
<clipPath id="clip0_0_29">
<rect width="165" height="31.1842" fill="white"/>
</clipPath>
</defs>
</svg>
