<svg preserveAspectRatio="none" width="100%" height="100%" overflow="visible" style="display: block;" viewBox="0 0 84.4608 33.6524" fill="none" xmlns="http://www.w3.org/2000/svg">
<g id="google-pay 1" clip-path="url(#clip0_0_4)">
<path id="Vector" d="M39.9219 16.4289V26.2545H36.8049V1.98967H45.0719C47.065 1.94803 48.9922 2.70428 50.4252 4.09031C51.8749 5.39437 52.6903 7.26147 52.6613 9.21124C52.7029 11.1719 51.8861 13.0529 50.4252 14.3612C48.9796 15.7397 47.1951 16.4283 45.0719 16.427H39.9219V16.4289ZM39.9219 4.97704V13.4474H45.1493C46.3081 13.4817 47.4278 13.0263 48.2335 12.1928C49.0344 11.4142 49.4862 10.3447 49.4862 9.2277C49.4862 8.11071 49.0344 7.04122 48.2335 6.26259C47.4375 5.4112 46.3144 4.94235 45.1493 4.9751H39.9219V4.97704ZM59.8442 9.11056C62.1481 9.11056 63.9667 9.72624 65.3001 10.9576C66.6334 12.1889 67.2994 13.8772 67.2981 16.0224V26.2545H64.3165V23.9506H64.181C62.8903 25.848 61.1736 26.7966 59.031 26.7966C57.2021 26.7966 55.6719 26.2545 54.4406 25.1703C53.2438 24.1626 52.5653 22.6689 52.5936 21.1046C52.5936 19.3866 53.2428 18.0204 54.5413 17.0059C55.8397 15.9914 57.5732 15.4828 59.7416 15.4803C61.5925 15.4803 63.1168 15.8191 64.3146 16.4967V15.7842C64.3217 14.7179 63.849 13.7048 63.0271 13.0253C62.2028 12.2816 61.1286 11.8758 60.0184 11.8888C58.2773 11.8888 56.8994 12.6233 55.8849 14.0921L53.1396 12.3632C54.6497 10.1948 56.8846 9.11056 59.8442 9.11056ZM55.8113 21.1723C55.8071 21.9772 56.1922 22.7345 56.8452 23.2052C57.5346 23.7475 58.3903 24.0348 59.2672 24.0184C60.5826 24.0162 61.8435 23.4926 62.7735 22.5624C63.8061 21.5905 64.3223 20.4502 64.3223 19.1414C63.3504 18.367 61.9952 17.9797 60.2566 17.9797C58.9904 17.9797 57.9346 18.285 57.0892 18.8955C56.2353 19.5151 55.8113 20.2682 55.8113 21.1723ZM84.413 9.65267L74.0047 33.5729H70.7869L74.6494 25.2033L67.8054 9.65267H71.1935L76.1402 21.5789H76.2079L81.0191 9.65267H84.413Z" fill="var(--fill-0, #5F6368)"/>
<path id="Vector_2" d="M27.3258 14.3109C27.327 13.3609 27.2467 12.4127 27.0857 11.4765H13.9398V16.8452H21.4692C21.1578 18.5779 20.1521 20.1082 18.6851 21.0813V24.5663H23.1787C25.8099 22.1404 27.3258 18.5528 27.3258 14.3109Z" fill="var(--fill-0, #4285F4)"/>
<path id="Vector_3" d="M13.9398 27.9331C17.7016 27.9331 20.869 26.6979 23.1787 24.5682L18.6851 21.0832C17.4344 21.9312 15.8236 22.4153 13.9398 22.4153C10.3038 22.4153 7.21771 19.9642 6.11414 16.6612H1.48498V20.2527C3.85116 24.9611 8.6702 27.9329 13.9398 27.9331Z" fill="var(--fill-0, #34A853)"/>
<path id="Vector_4" d="M6.11415 16.6613C5.53073 14.9305 5.53073 13.0562 6.11415 11.3254V7.73401H1.48498C-0.494134 11.6722 -0.494134 16.3145 1.48498 20.2527L6.11415 16.6613Z" fill="var(--fill-0, #FBBC04)"/>
<path id="Vector_5" d="M13.9398 5.5714C15.9277 5.53893 17.8486 6.29003 19.2872 7.66237L23.2659 3.68373C20.743 1.31411 17.4007 0.0131541 13.9398 0.0535776C8.6702 0.0538178 3.85116 3.02554 1.48498 7.734L6.11414 11.3254C7.21771 8.02248 10.3038 5.5714 13.9398 5.5714Z" fill="var(--fill-0, #EA4335)"/>
</g>
<defs>
<clipPath id="clip0_0_4">
<rect width="84.4608" height="33.6524" fill="white"/>
</clipPath>
</defs>
</svg>
