<svg preserveAspectRatio="none" width="100%" height="100%" overflow="visible" style="display: block;" viewBox="0 0 159.998 30.396" fill="none" xmlns="http://www.w3.org/2000/svg">
<g id="Group">
<path id="Vector" d="M42.8195 24.6496V30.3957H39.2157V11.6899H42.8195V12.5848C43.8928 11.887 45.1432 11.5105 46.4233 11.4997C50.5157 11.4997 53.5249 14.7531 53.5249 18.6292C53.5249 22.5054 50.5437 25.7588 46.4233 25.7588C45.1377 25.761 43.8814 25.3743 42.8195 24.6496ZM42.8195 16.9234V20.2309C43.1038 20.8362 43.5456 21.354 44.0986 21.7299C44.6517 22.1059 45.2956 22.3262 45.963 22.3679C46.6304 22.4096 47.2968 22.2711 47.8923 21.9669C48.4879 21.6627 48.9907 21.204 49.3481 20.6388C49.7055 20.0736 49.9044 19.4228 49.924 18.7543C49.9435 18.0859 49.783 17.4245 49.4593 16.8393C49.1355 16.2542 48.6604 15.7669 48.0836 15.4284C47.5069 15.0899 46.8498 14.9127 46.1811 14.9153C45.4897 14.9055 44.8092 15.0882 44.2156 15.4428C43.622 15.7974 43.1386 16.31 42.8195 16.9234Z" fill="var(--fill-0, #083E9E)"/>
<path id="Vector_2" d="M55.4769 7.91986C55.4652 7.64707 55.5093 7.37474 55.6067 7.11964C55.704 6.86453 55.8525 6.63204 56.0431 6.43645C56.2336 6.24086 56.4621 6.08631 56.7146 5.9823C56.967 5.87829 57.2381 5.82702 57.5111 5.83164C57.7879 5.82684 58.0628 5.87738 58.3198 5.98029C58.5768 6.08321 58.8106 6.23643 59.0076 6.43095C59.2045 6.62547 59.3606 6.85738 59.4667 7.11307C59.5728 7.36875 59.6267 7.64305 59.6254 7.91986C59.6195 8.47658 59.3942 9.0085 58.9982 9.39993C58.6023 9.79136 58.0679 10.0106 57.5111 10.0101C57.2396 10.0088 56.971 9.95348 56.7211 9.84729C56.4712 9.7411 56.245 9.58619 56.0556 9.3916C55.8663 9.19701 55.7176 8.96665 55.6182 8.71396C55.5189 8.46127 55.4708 8.19132 55.4769 7.91986ZM55.6952 11.6899H59.3551V25.5426H55.6952V11.6899Z" fill="var(--fill-0, #083E9E)"/>
<path id="Vector_3" d="M61.5214 18.5772C61.514 17.6448 61.6932 16.7204 62.0483 15.8583C62.4033 14.9961 62.9272 14.2137 63.589 13.5569C64.2508 12.9001 65.0372 12.3823 65.9021 12.0338C66.7669 11.6853 67.6926 11.5133 68.6249 11.5277C69.8996 11.5283 71.1543 11.8448 72.2768 12.4487V11.6899H75.8566V24.7557C75.8566 28.3596 72.7373 30.3137 68.8351 30.3137C66.2864 30.3137 63.8458 29.5548 62.2461 28.3115L63.7377 25.7368C65.258 26.7108 67.0297 27.2194 68.8351 27.2003C71.3558 27.2003 72.1426 26.1993 72.2508 24.5716C71.165 25.2661 69.9058 25.6414 68.6169 25.6547C64.4685 25.6507 61.5214 22.5614 61.5214 18.5772ZM72.2768 20.1208V17.0315C71.974 16.387 71.495 15.8411 70.8953 15.4571C70.2955 15.0731 69.5993 14.8665 68.8872 14.8612C68.3954 14.8565 67.9076 14.949 67.4517 15.1334C66.9958 15.3178 66.5808 15.5905 66.2306 15.9358C65.8805 16.2812 65.602 16.6923 65.4113 17.1456C65.2205 17.5989 65.1213 18.0854 65.1192 18.5772C65.1192 20.7175 66.7449 22.209 68.8612 22.209C69.5713 22.2275 70.2715 22.0402 70.8776 21.6697C71.4836 21.2992 71.9696 20.7613 72.2768 20.1208Z" fill="var(--fill-0, #083E9E)"/>
<path id="Vector_4" d="M78.0289 18.5772C78.0216 17.6448 78.2007 16.7204 78.5558 15.8583C78.9109 14.9961 79.4347 14.2137 80.0965 13.5569C80.7584 12.9001 81.5448 12.3823 82.4096 12.0338C83.2744 11.6853 84.2002 11.5133 85.1325 11.5277C86.4098 11.5273 87.6673 11.8437 88.7923 12.4487V11.6899H92.3702V24.7557C92.3702 28.3596 89.2528 30.3137 85.3507 30.3137C82.802 30.3137 80.3614 29.5548 78.7617 28.3115L80.2533 25.7368C81.7734 26.7111 83.5452 27.2198 85.3507 27.2003C87.8714 27.2003 88.6582 26.1993 88.7663 24.5716C87.6804 25.2658 86.4213 25.6411 85.1325 25.6547C80.9841 25.6507 78.0289 22.5614 78.0289 18.5772ZM88.7923 20.1208V17.0315C88.4893 16.3871 88.0103 15.8414 87.4106 15.4574C86.8109 15.0734 86.1149 14.8668 85.4027 14.8612C84.911 14.8565 84.4231 14.949 83.9672 15.1334C83.5113 15.3178 83.0964 15.5905 82.7462 15.9358C82.396 16.2812 82.1176 16.6923 81.9268 17.1456C81.7361 17.5989 81.6368 18.0854 81.6347 18.5772C81.6347 20.7175 83.2605 22.209 85.3767 22.209C86.0868 22.2273 86.787 22.0399 87.3929 21.6694C87.9989 21.2989 88.4849 20.7611 88.7923 20.1208Z" fill="var(--fill-0, #083E9E)"/>
<path id="Vector_5" d="M97.6277 11.6899L101.262 20.9337L105.002 11.6899H108.806L100.827 30.3958H97.4395L99.4416 25.4085L93.6175 11.6899H97.6277Z" fill="var(--fill-0, #083E9E)"/>
<path id="Vector_6" d="M108.115 11.6899H111.991L115.523 21.0438L119.02 11.6899H122.824L117.267 25.5426H113.621L108.115 11.6899Z" fill="var(--fill-0, #083E9E)"/>
<path id="Vector_7" d="M123.081 18.5211C123.081 14.619 125.872 11.3916 130.236 11.3916C134.277 11.3916 137.346 14.4288 137.42 18.419C137.448 18.7621 137.448 19.107 137.42 19.4501H126.496C126.605 21.4022 128.475 22.6755 130.481 22.6755C132.134 22.6755 133.109 22.2151 134.249 21.2741L136.229 23.3623C134.627 25.0421 133.025 25.8289 130.481 25.8289C125.792 25.8149 123.081 22.3172 123.081 18.5211ZM126.685 16.8674H133.68C133.328 15.568 132.078 14.4288 130.182 14.4288C127.986 14.4288 127.065 15.54 126.685 16.8674Z" fill="var(--fill-0, #083E9E)"/>
<path id="Vector_8" d="M138.177 24.053L139.949 21.1779C141.539 22.238 143.403 22.8125 145.314 22.8317C147.132 22.8317 148.053 22.3712 148.053 21.5864C148.053 21.0698 147.619 20.6914 146.698 20.5012L142.894 19.6884C140.103 19.0877 138.828 17.7643 138.828 15.596C138.828 13.2916 140.78 11.3655 144.82 11.3655C147.258 11.3655 149.425 12.0723 150.918 12.9933L149.265 15.7582C148.045 15.1075 146.42 14.4028 144.71 14.4028C143.166 14.4028 142.271 14.7832 142.271 15.4859C142.271 15.9484 142.598 16.2467 143.49 16.4089L146.694 17.0095C150.164 17.6862 151.499 19.2319 151.499 21.3201C151.499 24.3233 148.496 25.901 145.208 25.901C142.738 25.9487 140.304 25.3089 138.177 24.053Z" fill="var(--fill-0, #083E9E)"/>
<path id="Vector_9" d="M152.22 11.6899H154.28V7.86781L157.884 5.53734V11.6899H159.998V14.8352H157.886V25.5446H154.282V14.8352H152.218V11.6899H152.22Z" fill="var(--fill-0, #083E9E)"/>
<path id="Vector_10" d="M30.1921 13.9185C30.132 13.0391 29.9878 12.1676 29.7616 11.3157C28.7305 7.51165 26.5582 4.51847 23.2467 2.3822C21.1609 1.02566 18.765 0.220388 16.2833 0.0417145C15.2407 -0.0344409 14.193 -0.00627131 13.156 0.125804C12.0635 0.270408 10.9895 0.531504 9.95257 0.904631C7.19126 1.90068 4.7813 3.68211 3.0191 6.0298C1.25691 8.37749 0.219351 11.1891 0.0340362 14.1187C0 14.6572 0 15.1998 0 15.7404V28.8824C0 29.2238 0.135633 29.5512 0.377061 29.7927C0.61849 30.0341 0.945937 30.1697 1.28737 30.1697H6.36476C6.68251 30.1678 6.98849 30.0493 7.22468 29.8367C7.46086 29.6241 7.61082 29.3323 7.64612 29.0165C7.67953 28.8931 7.69703 28.7659 7.69818 28.6381V28.3338C7.69518 28.3105 7.69518 28.287 7.69818 28.2637V28.2297C7.73281 28.2389 7.76541 28.2545 7.79428 28.2757C9.69345 29.3259 11.7968 29.9542 13.9608 30.1177C14.8276 30.1818 15.6983 30.1731 16.5636 30.0916C18.6007 29.904 20.5778 29.3013 22.3731 28.3207C24.1684 27.34 25.744 26.0022 27.0027 24.3896C28.7968 22.1327 29.8947 19.402 30.162 16.5312C30.2526 15.6631 30.2627 14.7884 30.1921 13.9185ZM17.8189 22.3154C17.81 22.3617 17.785 22.4033 17.7484 22.4329C17.7118 22.4626 17.6658 22.4784 17.6187 22.4776H12.6134C12.5663 22.4784 12.5204 22.4626 12.4837 22.4329C12.4471 22.4033 12.4221 22.3617 12.4132 22.3154V22.2833V22.0971C12.4121 21.8674 12.4376 21.6383 12.4893 21.4144C12.5213 21.3383 12.5413 21.2482 12.5734 21.1642C12.6054 21.0801 12.6374 21.002 12.6695 20.9199C12.7015 20.8378 12.7535 20.7637 12.7976 20.6937L12.8697 20.5855C12.9167 20.5156 12.9682 20.4487 13.0238 20.3853C13.0819 20.3133 13.14 20.2512 13.198 20.1851C13.4992 19.8889 13.8653 19.6668 14.2672 19.5364C13.921 19.3479 13.6473 19.0496 13.4894 18.6884C13.3314 18.3273 13.2981 17.9238 13.3946 17.5417C13.4912 17.1595 13.7122 16.8203 14.0228 16.5776C14.3334 16.3348 14.7159 16.2023 15.1101 16.2009C15.5807 16.2044 16.0312 16.392 16.3654 16.7234C16.5588 16.9181 16.7045 17.155 16.7908 17.4155C16.8772 17.676 16.9019 17.953 16.8631 18.2246C16.8243 18.4963 16.723 18.7553 16.5672 18.9812C16.4113 19.2071 16.2052 19.3937 15.965 19.5264C16.5056 19.7046 16.9761 20.0492 17.3091 20.511C17.6421 20.9727 17.8205 21.5279 17.8189 22.0971V22.3154ZM26.4481 11.4118H3.79203C3.74956 11.4115 3.70777 11.4011 3.67009 11.3815C3.63241 11.362 3.59992 11.3337 3.57529 11.2991C3.55066 11.2645 3.5346 11.2246 3.52842 11.1825C3.52225 11.1405 3.52613 11.0976 3.53976 11.0574C4.38513 8.66167 5.9528 6.58712 8.02668 5.11971C10.1006 3.6523 12.5785 2.86429 15.1191 2.86429C17.6596 2.86429 20.1376 3.6523 22.2114 5.11971C24.2853 6.58712 25.853 8.66167 26.6984 11.0574C26.7119 11.0975 26.7159 11.1402 26.7098 11.1821C26.7037 11.2239 26.6878 11.2637 26.6634 11.2983C26.639 11.3329 26.6068 11.3611 26.5694 11.3809C26.532 11.4006 26.4904 11.4112 26.4481 11.4118Z" fill="var(--fill-0, #083E9E)"/>
</g>
</svg>
